<?xml version="1.0" encoding="utf-8"?>
<!-- Generator: Adobe Illustrator 16.0.0, SVG Export Plug-In . SVG Version: 6.00 Build 0)  -->
<!DOCTYPE svg PUBLIC "-//W3C//DTD SVG 1.1//EN" "http://www.w3.org/Graphics/SVG/1.1/DTD/svg11.dtd">
<svg version="1.1" id="Layer_1" xmlns="http://www.w3.org/2000/svg" xmlns:xlink="http://www.w3.org/1999/xlink" x="0px" y="0px"
	 width="864px" height="864px" viewBox="0 0 864 864" enable-background="new 0 0 864 864" xml:space="preserve">
<path fill-rule="evenodd" clip-rule="evenodd" fill="#FFFFFF" d="M450.839,798.97c-32.068,27.403-87.288,5.731-103.369-15.971
	c-29.842-40.273-28.66-73.07,2.231-100.119c0.618,5.55,2.716,10.369,1.264,13.583c-10.75,23.789-7.62,43.009,10.137,60.188
	c17.078,16.523,38.241,25.435,60.197,32.771c4.279,1.431,9.98,1.877,13.975,0.231C444.986,785.651,448.104,790.732,450.839,798.97z"
	/>
<g>
	<path fill-rule="evenodd" clip-rule="evenodd" fill="#2E3192" d="M453.57,729.478c-13.694,23.062-34.555,27.722-47.273,12.622
		c9.816,10.191,17.296,8.336,26.068-1.525C437.325,735,446.366,733.058,453.57,729.478z"/>
	<path fill-rule="evenodd" clip-rule="evenodd" fill="#2E3192" d="M423.074,772.521"/>
</g>
<g>
	<path fill-rule="evenodd" clip-rule="evenodd" fill="#A97C50" d="M457.4,102.118c-3.105-2.734-10.752-2.685-15.229-1.025
		c-11.479,4.256-17.766,0.232-21.772-10.217c-0.877-2.29-2.282-4.376-2.48-4.745c-2.557,6.098-5.033,12.584-8.347,18.608
		c-0.22,0.4-6.813-2.708-10.322-4.134c-0.875,2.434-1.507,7.046-3.934,10.332c-4.595,6.222-9.563,7.657-13.767-1.121
		c-9.239-19.294-19.133-20.294-36.341-8.047c-16.31,11.609-34.715,20.252-52.028,30.489c-3.768,2.229-8.606,5.059-9.878,8.688
		c-5.768,16.457-12.689,30.828-34.225,28.951c0,7.695,1.076,14.404-0.226,20.612c-2.629,12.541-8.42,24.65-9.503,37.23
		c-1.657,19.238-0.435,38.724-0.435,63.029c-19.209-13.315-27.867-2.656-34.459,10c-2.902,5.571-2.114,12.941-3.95,19.216
		c-3.377,11.546,0.574,21.666,10.736,24.641c8.193,2.397,20.173,0.953,27.118-3.745c9.099-6.153,13.022-5.161,17.878,3.193
		c5.716,9.835,9.406,23.351,18.021,28.498c20.566,12.286,42.685,24.223,65.73,29.453c21.621,4.906,45.245,1.365,67.975,0.932
		c5.759-0.11,11.423-0.467,16.992-1.064l4.091,22.166l0,0c-2.975,2.259-5.56,4.95-7.554,8.023
		c17.584-3.059,32.826-5.71,51.756-9.004c-3.245-2.862-7.103-4.796-11.249-5.903v-23.557c20.22-7.168,38.696-18.628,55.062-35.042
		c16.914-16.963,28.65-37.896,31.687-61.2c7.169-55.017-11.347-104.236-42.54-148.159
		C493.324,131.072,474.394,117.077,457.4,102.118z"/>
	<path fill-rule="evenodd" clip-rule="evenodd" fill="#A97C50" d="M269.271,464.219c-0.679-3.157,9.252-7.614,11.713-12.731
		c2.048-4.261,1.494-10.825-0.273-15.471c-1.044-2.743-6.686-3.738-10.26-5.52c-1.829,4.076-4.097,8.024-5.34,12.272
		c-0.91,3.116,0.724,7.46-0.893,9.784c-3.07,4.413-7.107,9.244-11.825,11.006c-2.754,1.03-7.769-3.29-11.465-5.672
		c-4.357-2.809-8.391-6.125-12.563-9.22c-3.19,4.556-6.381,9.112-9.97,14.239c5.644,2.398,9.57,2.914,11.542,5.151
		c3.855,4.373,6.62,9.709,9.836,14.646c-4.488,1.628-9.174,2.86-13.413,4.986c-4.681,2.349-8.95,5.518-13.4,8.328
		c11.604,5.139,21.676-10.23,32.961,4.483c-7.699,3.913-13.928,7.168-20.234,10.262c-10.668,5.236-10.877,8.004-1.066,16.087
		c14.465-15.905,14.465-15.905,23.491-8.14c-4.009,4.72-8.423,8.21-10.378,12.758c-1.56,3.628-1.522,9.407,0.448,12.604
		c1.443,2.342,7.978,3.814,10.816,2.527c5.175-2.347,9.5-6.805,13.791-10.8c4.22-3.929,7.297-9.44,12.04-12.385
		c11.715-7.271,13.87-17.94,6.703-29.974C276.135,484.382,271.461,474.396,269.271,464.219z"/>
	<path fill-rule="evenodd" clip-rule="evenodd" fill="#A97C50" d="M633.817,431.208c2.884-4.16,5.942-8.194,8.571-12.493
		c1.857-3.038,3.133-6.433,4.666-9.668c-3.457,1.666-6.805,3.641-10.401,4.917c-4.788,1.702-9.769,2.857-14.666,4.249
		c-0.281-5.118-0.943-10.256-0.655-15.341c0.117-2.074,3.249-3.989,3.338-6.049c0.165-3.845-0.892-7.741-1.44-11.617
		c-3.724,1.233-7.854,1.843-11.02,3.924c-1.964,1.289-1.937,5.295-3.728,7.225c-3.697,3.982-8.012,7.393-12.072,11.037
		c-3.083-4.03-6.312-7.958-9.208-12.118c-2.795-4.015-4.854-8.651-8.199-12.072c-0.618-0.631-8.134,2.904-8.428,5.064
		c-0.62,4.564-0.146,10.986,2.693,13.974c6.881,7.242,11.558,14.033,12.482,24.855c1.899,22.245,25.401,29.859,35.009,47.249
		c3.581-2.879,9.703-5.4,10.169-8.718c0.774-5.497-2.092-11.506-3.928-19.486c5.806,0.778,9.826,1.961,13.724,1.643
		c3.421-0.279,6.705-2.243,10.05-3.462C645.836,440.501,640.897,436.683,633.817,431.208z"/>
	<path fill-rule="evenodd" clip-rule="evenodd" fill="#A97C50" d="M353.805,712.445c2.141,18.846,11.058,31.285,26.313,37.518
		c-2.624-11.406-5.267-22.892-7.893-34.305C365.162,714.425,359.545,713.445,353.805,712.445z"/>
</g>
<g>
	<path fill-rule="evenodd" clip-rule="evenodd" fill="#A7A9AC" d="M640.296,782.436c-0.123,0.115-0.248,0.229-0.372,0.344
		c-0.022,0.062-0.045,0.123-0.067,0.185C639.856,782.961,640.296,782.436,640.296,782.436z"/>
	<path fill-rule="evenodd" clip-rule="evenodd" fill="#A7A9AC" d="M662.574,694.271c-0.052-1.936-1.879-5-3.628-6.633
		c-0.272-2.836-0.658-5.598-1.162-8.272c0.977-0.049,1.947-0.099,2.924-0.147c-4.629-18.556-7.535-24.082-12.29-23.606
		c-1.61-2.314-3.406-4.442-5.395-6.362c-14.473-24.351-50.985-20.46-76.97,12.716c2.505-0.258,4.979-0.512,7.44-0.765
		c-1.125,1.071-2.243,2.169-3.351,3.307c-9.373,1.58-15.913,6.984-18.687,20.219c0.878-0.044,1.748-0.088,2.626-0.133
		c-1.152,1.758-2.278,3.551-3.366,5.391c-2.705,0.536-5.072,1.42-5.799,2.881c-8.017,16.106-14.768,32.844-21.941,49.372
		c1.264,1.276,2.527,2.554,3.79,3.83c0.392-0.049,0.784-0.1,1.176-0.148c-0.807,2.268-1.569,4.484-2.28,6.657
		c-6.576,1.737-7.593,6.696-7.663,20.055c-0.044,8.374,1.511,16.756,2.456,26.313c2.278-0.203,4.532-0.403,6.795-0.605
		c1.53,2.051,3.361,4.052,5.518,6.007c-2.031,0.146-4.062,0.293-6.093,0.445c3.352,5.948,6.96,9.037,11.123,10.855
		c6.903,3.016,14.88,4.575,23.243,4.867c0.337,0.134,0.662,0.269,1.005,0.402c9.436,3.684,23.469,0.798,37.831-7.483
		c10.738-4.364,20.291-10.577,26.984-18.234c3.938-4.505,8.666-8.316,13.062-12.419c2.378-6.492,4.762-13.004,7.842-21.413
		c-0.639,0.09-1.271,0.18-1.908,0.27c1.541-3.41,2.957-6.927,4.188-10.573c0-0.001,0-0.001,0.001-0.002
		c2.364-3.674,3.982-8.69,4.942-15.188c-0.172,0.03-0.343,0.063-0.515,0.094c0.501-2.007,0.969-4.012,1.397-6.011
		c3.024-2.171,5.046-5.675,5.165-11.559C661.199,710.345,662.788,702.293,662.574,694.271z"/>
	<path fill-rule="evenodd" clip-rule="evenodd" fill="#A7A9AC" d="M329.892,672.438c-26.595,17.893-17.47,43.33-12.489,68.057
		c-1.794-26.197,10.464-46.832,27.094-67.467C339.167,671.521,333.297,670.148,329.892,672.438z"/>
	<path fill-rule="evenodd" clip-rule="evenodd" fill="#A7A9AC" d="M365.25,811.573c28.948,20.002,69.203,19.012,83.617-2.062
		C421.427,829.348,393.378,821.512,365.25,811.573z"/>
</g>
<path fill-rule="evenodd" clip-rule="evenodd" fill="#F7941E" d="M589.416,586.514c-1.409-1.609-4.075-2.117-6.156-3.132
	c-1.24,1.213-2.49,2.407-3.745,3.592c-3.053-1.231-6.428-2.749-9.847-4.577c0.813-0.83,1.627-1.66,2.431-2.506
	c-4.657-5.1-9.036-9.893-13.427-14.699c-1.008-1.104-2.017-2.208-3.03-3.317c-2.905-3.181-5.846-6.399-8.904-9.748
	c-0.187,0.087-0.394,0.186-0.59,0.278c-0.327-5.717,0.662-11.09,1.67-14.877c0.874-1.643,1.469-3.453,1.781-5.446
	c0.376-2.397,0.346-5.059-0.123-8.026c-0.545-3.456-0.687-6.803-0.169-9.896l16.573-17.109c6.08-4.851,9.52-11.063,10.111-18.3
	l9.917-0.05c0.202,0.502,5.709-1.129,8.742-1.766c-1.191-4.664-1.421-9.899-3.775-13.875c-5.029-8.491-11.33-16.216-16.764-24.483
	c-2.744-4.174-4.731-8.845-7.062-13.291c-0.389,0.307-0.779,0.611-1.17,0.918l-8.974,13.151c-2.662-0.569-5.625-0.591-6.15,0.174
	c-9.142,13.311-24.445,11.354-37.011,15.263c-4.386,1.364-8.776,2.711-13.169,4.054l-5.384-8.911
	c0.565-0.122,1.13-0.247,1.698-0.365c-1.729-1.687-3.418-3.477-5.087-5.242l-0.001-0.002l0,0
	c-7.535-7.973-14.663-15.449-23.305-10.679c-12.174,6.72-23.557,8.557-36.512,8.712c-11.652,0.14-19.971,4.168-24.412,11.635
	c-0.588,0.99-1.106,2.042-1.557,3.152h-0.002l0,0.006c-1.298,3.196-2.024,6.882-2.141,11.038c0.526,0.035,1.048,0.055,1.572,0.082
	l-0.964,18.854c-6.351,1.832-12.7,3.666-19.049,5.504c-2.537,0.734-5.565-0.271-8.366-0.396
	c-11.138-0.505-22.333-0.467-33.395-1.668c-6.279-0.682-13.68-1.747-18.225-5.493c-9.968-8.213-19.605-5.952-31.022-3.544
	c13.214,24.563-2.384,40.348-15.245,56.557c10.785,6.491,18.26,7.081,23.484-2.084l9.275,1.968c-0.047,0.085-0.093,0.165-0.14,0.25
	c3.978,0.713,7.525,1.393,10.81,2.015l0.016,0.003c5.874,1.111,10.894,2.034,15.949,2.609c3.111,0.354,6.408-1.393,9.668-1.803
	c14.868-1.871,23.883,3.17,28.401,17.778c7.096,22.948,6.229,44.836-6.471,66.749c-16.045,27.685-2.542,55.553,28.316,57.429
	c43.64,2.651,87.603,3.58,130.75-5.595c7.941-1.689,15.062-8.875,21.739-14.499c10.679-8.993,20.118-19.51,31.111-28.057
	c8.485-6.599,13.96-31.277,9.82-43.712C591.297,589.293,590.473,587.72,589.416,586.514z"/>
<polygon fill-rule="evenodd" clip-rule="evenodd" fill="#2E3192" points="453.57,729.478 406.297,742.1 421.298,789.423 
	461.535,782.436 469.5,757.75 "/>
<g>
	<path fill-rule="evenodd" clip-rule="evenodd" d="M640.296,782.436c-17.501,43.107-75.36,63.66-114.781,39.7
		c-7.323-4.45-14.571-13.77-16.178-21.954c-4.236-21.593-5.353-43.797-7.863-67.169c-2.33,2.996-4.752,6.462-7.529,9.619
		c-9.037,10.27-18.685,20.047-27.127,30.777c-4.597,5.841-10.764,13.567-10.152,19.854c2.896,29.792-7.944,41.783-38.244,43.788
		c-71.862,4.76-113.362-51.984-117.354-114.414c-1.387-21.687,5.878-39.296,20.411-54.308c10.295-10.637,20.604-9.499,27.612,3.307
		c4.741,8.662,7.284,18.506,11.224,27.643c0.953,2.21,3.268,4.548,5.469,5.272c1.66,0.546,5.357-0.876,5.968-2.334
		c0.945-2.258,1.153-6.414-0.262-7.833c-23.264-23.313-18.05-50.145-6.232-75.036c9.5-20.012,8.54-37.932,2.537-57.757
		c-3.609-11.924-9.664-13.414-20.252-9.972c-4.78,1.555-10.439,0.729-15.676,0.476c-6.061-0.294-12.083-1.345-18.143-1.711
		c-12.873-0.779-25.752-1.537-38.64-1.853c-4.026-0.099-8.123,1.081-12.124,1.966c-8.28,1.829-16.5,3.932-24.785,5.733
		c-1.791,0.389-4.625,0.761-5.502-0.203c-5.152-5.663-10.826-11.199-14.456-17.804c-3.491-6.354-4.84-13.915-6.862-21.021
		c-0.627-2.208,0.318-5.007-0.638-6.957c-8.833-18.039-7.768-21.738,9.903-32.167c-3.57-4.639-10.028-9.286-10.012-13.915
		c0.02-6.519,3.585-14.04,7.873-19.312c7.872-9.684,15.608-7.514,34.974,9.105c1.472-7.23,2.727-13.303,3.944-19.38
		c2.679-13.371,8.135-16.248,19.786-9.83c11.357,6.255,21.666,11.896,13.386,29.026c-5.82,12.044,2.786,19.057,16.441,16.966
		c5.056-0.773,12.222-0.146,15.603,2.938c8.82,8.047,17.085,12.128,29.441,8.168c5.831-1.87,13.224,0.224,19.715,1.508
		c12.962,2.564,20.477-1.297,24.466-14.817c2.836-9.61,10.133-17.826,13.829-27.293c2.408-6.167,3.567-13.869,2.025-20.073
		c-0.732-2.941-9.492-6.29-13.937-5.523c-33.065,5.704-64.178-0.416-94.489-13.353c-26.066-11.125-49.044-25.429-56.286-56.357
		c-13.728,6.534-24.346,14.153-39.667,7.569c-14.409-6.194-18.985-16.479-17.395-29.022c2.726-21.518,4.769-44.651,32.751-50.972
		c2.926-0.66,6.199-7.42,6.333-11.449c0.507-15.102-0.052-30.251-0.665-45.364c-0.098-2.426-1.967-5.446-3.95-7.013
		c-7.793-6.162-15.897-11.938-24-17.695c-9.886-7.021-11.725-17.153-4.587-26.813c1.696-2.293,5.004-4.2,5.32-6.583
		c2.513-18.96,8.616-33.734,31.841-33.145c1.37,0.035,4.16-8.763,4.204-13.47c0.088-9.789,1.881-17.999,11.625-22.534
		c1.274-0.593,2.996-1.361,3.424-2.468c7.668-19.854,29.531-21.707,43.247-33.924c3.43-3.054,9.654-2.809,14.419-4.559
		c8.595-3.154,16.915-7.115,25.622-9.884c6.044-1.924,14.329-5.437,18.495-2.971c11.331,6.703,19.733,3.856,29.619-5.083
		c3.195,5.113,5.989,9.587,9.5,15.208c2.249-1.331,5.104-2.551,7.387-4.457c8.67-7.23,16.346-9.699,22.443,3.007
		c1.103,2.299,3.7,4.192,6.035,5.527c5.497,3.143,11.252,5.834,18.141,9.338c1.541-3.421,3.846-8.539,5.776-12.824
		c8.402,5.092,16.543,9.215,23.653,14.679c3.559,2.734,6.42,7.623,7.521,12.053c2.272,9.157,3.456,18.625,4.538,28.029
		c1.685,14.63,11.54,23.179,20.45,33.874c13.479,16.179,21.621,36.749,32.533,55.154c2.999,5.058,6.985,10.425,11.896,13.292
		c18.816,10.986,27.98,28.466,17.687,47.593c-10.726,19.931-11.469,41.596-17.626,62.165
		c-11.556,38.614-38.036,62.988-71.674,81.024c-15.082,8.087-15.593,6.764-4.381,19.127c5.396,5.949,9.366,13.406,15.385,18.533
		c22.349,19.034,40.067,17.003,59.432-5.476c3.805-4.418,8.679-7.916,14.349-12.992c-0.986-10.788-16.624-25.478,2.709-36.158
		c12.851-7.098,20.716-3.143,31.271,13.203c1.746-1.521,4.063-2.64,4.938-4.455c4.023-8.34,10.824-13.88,19.279-10.118
		c5.893,2.624,9.501,10.259,14.306,15.494c2.765,3.014,5.405,7.133,8.916,8.295c13.623,4.513,13.416,13.464,13.962,26.311
		c0.903,21.296-12.176,32.764-21.955,47.532c-4.774,7.209-9.359,10.032-17.952,10.99c-21.997,2.452-42.223,10.408-57.327,27.364
		c-13.482,15.137-7.153,46.545,10.537,56.134c4.608,2.496,9.071,5.362,13.896,7.335c9.773,3.997,13.698,10.964,12.815,21.362
		c-0.523,6.167-1.655,12.941,0.285,18.458c1.713,4.867,7.258,11.788,11.196,11.846c12.785,0.188,23.792,1.064,33.854,11.053
		c13.207,13.11,21.464,27.968,22.842,46.26c2.524,33.473-10.162,63.423-23.039,93.164c-1.073,2.478-5.085,3.684-7.731,5.483
		c2.4-6.554,4.8-13.108,7.909-21.598c-41.497,5.861-81.731,11.545-121.966,17.228c-0.255-1.408-0.509-2.815-0.765-4.224
		c1.898-1.025,3.693-2.619,5.712-2.99c27.781-5.103,55.567-10.183,83.425-14.846c3.964-0.663,8.354,0.641,12.455,1.479
		c16.884,3.45,25.512-2.846,28.362-22.141c-14.122,2.516-27.804,5.587-41.654,7.261c-18.028,2.179-36.211,3.045-54.283,4.902
		c-6.576,0.676-13.042,3.775-19.531,3.689c-19.255-0.249-21.418,1.121-21.521,20.905c-0.044,8.374,1.511,16.756,2.456,26.313
		c32.389-2.884,63.194-5.627,93.998-8.371c0.201,1.696,0.401,3.392,0.604,5.087c-12.242,1.753-24.44,3.937-36.734,5.155
		c-17.179,1.703-34.429,2.685-51.647,3.976c3.352,5.948,6.96,9.037,11.123,10.855c26.823,11.717,69.786,1.604,89.063-20.448
		C630.909,790.567,635.796,786.671,640.296,782.436z M558.845,501.479c14.242-7.092,20.03-19.046,15.995-33.876
		c-2.544-9.349-8.262-18.03-13.687-26.267c-1.403-2.13-9.496-3.122-10.397-1.81c-9.142,13.311-24.445,11.354-37.011,15.263
		c-42.575,13.243-85.478,25.436-128.312,37.837c-2.537,0.734-5.565-0.271-8.366-0.396c-11.138-0.505-22.333-0.467-33.395-1.668
		c-6.279-0.682-13.68-1.747-18.225-5.493c-9.968-8.213-19.605-5.952-31.022-3.544c13.214,24.563-2.384,40.348-15.245,56.557
		c12.862,7.741,21.019,7.098,26.26-8.488c3.385-10.065,10.4-19.347,23.5-21.931c-5.441,9.697-10.881,19.396-17.141,30.553
		c11.101,1.989,18.89,3.729,26.775,4.627c3.111,0.354,6.408-1.393,9.668-1.803c14.868-1.871,23.883,3.17,28.401,17.778
		c7.096,22.948,6.229,44.836-6.471,66.749c-16.045,27.685-2.542,55.553,28.316,57.429c43.64,2.651,87.603,3.58,130.75-5.595
		c7.941-1.689,15.062-8.875,21.739-14.499c10.679-8.993,20.118-19.51,31.111-28.057c9.742-7.576,15.515-38.982,7.326-48.332
		c-1.409-1.609-4.075-2.117-6.156-3.132c-35.566,34.779-77.297,57.723-124.946,69.264c-9.021,2.186-19.844,7.693-33.335-4.091
		c9.057-2.267,14.597-4.325,20.296-4.976c50.701-5.787,92.83-27.951,126.824-63.688c-8.795-9.629-16.591-18.164-25.361-27.765
		c-3.121,1.461-7.724,3.733-12.419,5.795c-23.521,10.319-46.941,20.891-70.712,30.599c-4.565,1.866-10.543,0.268-15.869,0.268
		c0.041-1.539,0.083-3.078,0.123-4.619c2.539-1.103,5.064-2.232,7.615-3.304c26.733-11.228,53.418-22.576,80.234-33.6
		c10.678-4.39,15.628-11.407,13.766-23.21c-1.484-9.41-0.01-18.026,9.717-22.901L558.845,501.479z M238.916,290.768
		c-19.209-13.315-27.867-2.656-34.459,10c-2.902,5.571-2.114,12.941-3.95,19.216c-3.377,11.546,0.574,21.666,10.736,24.641
		c8.193,2.397,20.173,0.953,27.118-3.745c9.099-6.153,13.022-5.161,17.878,3.193c5.716,9.835,9.406,23.351,18.021,28.498
		c20.566,12.286,42.685,24.223,65.73,29.453c21.621,4.906,45.245,1.365,67.975,0.932c41.979-0.8,79.081-14.277,109.099-44.382
		c16.914-16.963,28.65-37.896,31.687-61.2c7.169-55.017-11.347-104.236-42.54-148.159c-12.885-18.144-31.815-32.139-48.809-47.098
		c-3.105-2.734-10.752-2.685-15.229-1.025c-11.479,4.256-17.766,0.232-21.772-10.217c-0.877-2.29-2.282-4.376-2.48-4.745
		c-2.557,6.098-5.033,12.584-8.347,18.608c-0.22,0.4-6.813-2.708-10.322-4.134c-0.875,2.434-1.507,7.046-3.934,10.332
		c-4.595,6.222-9.563,7.657-13.767-1.121c-9.239-19.294-19.133-20.294-36.341-8.047c-16.31,11.609-34.715,20.252-52.028,30.489
		c-3.768,2.229-8.606,5.059-9.878,8.688c-5.768,16.457-12.689,30.828-34.225,28.951c0,7.695,1.076,14.404-0.226,20.612
		c-2.629,12.541-8.42,24.65-9.503,37.23C237.694,246.977,238.916,266.463,238.916,290.768z M522.977,742.237
		c1.264,1.276,2.527,2.554,3.79,3.83c25.223-3.137,50.416-6.51,75.676-9.311c13.035-1.445,26.229-1.452,39.266-2.896
		c9.285-1.03,19.063-2.296,19.329-15.463c0.162-8.053,1.751-16.104,1.537-24.126c-0.073-2.751-3.734-7.793-5.656-7.747
		c-24.363,0.592-48.702,2.075-73.061,2.985c-8.798,0.328-17.648-0.675-26.438-0.269c-4.351,0.201-11.171,0.948-12.502,3.624
		C536.901,708.972,530.15,725.709,522.977,742.237z M248.112,518.711c-4.009,4.72-8.423,8.21-10.378,12.758
		c-1.56,3.628-1.522,9.407,0.448,12.604c1.443,2.342,7.978,3.814,10.816,2.527c5.175-2.347,9.5-6.805,13.791-10.8
		c4.22-3.929,7.297-9.44,12.04-12.385c11.715-7.271,13.87-17.94,6.703-29.974c-5.396-9.06-10.07-19.045-12.26-29.223
		c-0.679-3.157,9.252-7.614,11.713-12.731c2.048-4.261,1.494-10.825-0.273-15.471c-1.044-2.743-6.686-3.738-10.26-5.52
		c-1.829,4.076-4.097,8.024-5.34,12.272c-0.91,3.116,0.724,7.46-0.893,9.784c-3.07,4.413-7.107,9.244-11.825,11.006
		c-2.754,1.03-7.769-3.29-11.465-5.672c-4.357-2.809-8.391-6.125-12.563-9.22c-3.19,4.556-6.381,9.112-9.97,14.239
		c5.644,2.398,9.57,2.914,11.542,5.151c3.855,4.373,6.62,9.709,9.836,14.646c-4.488,1.628-9.174,2.86-13.413,4.986
		c-4.681,2.349-8.95,5.518-13.4,8.328c11.604,5.139,21.676-10.23,32.961,4.483c-7.699,3.913-13.928,7.168-20.234,10.262
		c-10.668,5.236-10.877,8.004-1.066,16.087C239.086,510.945,239.086,510.945,248.112,518.711z M450.839,798.97
		c-2.734-8.237-5.853-13.318-15.565-9.315c-3.995,1.646-9.696,1.199-13.975-0.231c-21.956-7.337-43.12-16.248-60.197-32.771
		c-17.756-17.18-20.887-36.399-10.137-60.188c1.452-3.214-0.646-8.033-1.264-13.583c-30.891,27.049-32.073,59.846-2.231,100.119
		C363.551,804.701,418.771,826.373,450.839,798.97z M633.817,431.208c2.884-4.16,5.942-8.194,8.571-12.493
		c1.857-3.038,3.133-6.433,4.666-9.668c-3.457,1.666-6.805,3.641-10.401,4.917c-4.788,1.702-9.769,2.857-14.666,4.249
		c-0.281-5.118-0.943-10.256-0.655-15.341c0.117-2.074,3.249-3.989,3.338-6.049c0.165-3.845-0.892-7.741-1.44-11.617
		c-3.724,1.233-7.854,1.843-11.02,3.924c-1.964,1.289-1.937,5.295-3.728,7.225c-3.697,3.982-8.012,7.393-12.072,11.037
		c-3.083-4.03-6.312-7.958-9.208-12.118c-2.795-4.015-4.854-8.651-8.199-12.072c-0.618-0.631-8.134,2.904-8.428,5.064
		c-0.62,4.564-0.146,10.986,2.693,13.974c6.881,7.242,11.558,14.033,12.482,24.855c1.899,22.245,25.401,29.859,35.009,47.249
		c3.581-2.879,9.703-5.4,10.169-8.718c0.774-5.497-2.092-11.506-3.928-19.486c5.806,0.778,9.826,1.961,13.724,1.643
		c3.421-0.279,6.705-2.243,10.05-3.462C645.836,440.501,640.897,436.683,633.817,431.208z M551.457,684.727
		c36.667-1.849,72.78-3.669,109.251-5.508c-7.953-31.884-10.812-25.334-26.723-15.883c-10.66-1.055-18.068-2.587-25.411-2.32
		c-9.842,0.358-19.668,3.277-29.437,2.985C564.944,663.577,555.048,667.595,551.457,684.727z M496.891,449.567
		c-9.539-9.303-17.836-21.75-28.393-15.923c-12.174,6.72-23.557,8.557-36.512,8.712c-17.648,0.212-27.649,9.343-28.113,25.831
		C435.903,470.341,464.379,456.315,496.891,449.567z M566.054,661.966c28.05-2.884,53.16-5.466,79.297-8.152
		C632.888,624.525,593.563,626.843,566.054,661.966z M317.402,740.495c-1.794-26.197,10.464-46.832,27.094-67.467
		c-5.329-1.508-11.199-2.88-14.604-0.59C303.297,690.331,312.422,715.769,317.402,740.495z M372.226,715.658
		c-7.063-1.233-12.681-2.213-18.421-3.213c2.141,18.846,11.058,31.285,26.313,37.518
		C377.494,738.557,374.851,727.071,372.226,715.658z M473.249,423.077c-14.528-12.811-41.27-7.156-51.756,9.004
		C439.077,429.022,454.318,426.371,473.249,423.077z M241.846,144.234c-9.504-4.654-15.201-9.082-21.206-9.549
		c-2.293-0.179-7.135,8.616-7.393,13.501c-0.208,3.96,4.705,8.19,7.347,12.302C226.576,155.912,232.56,151.335,241.846,144.234z
		 M567.05,425.285c-0.389,0.307-0.779,0.611-1.17,0.918c6.558,17.547,13.042,35.123,20.028,52.497
		c0.202,0.502,5.709-1.129,8.742-1.766c-1.191-4.664-1.421-9.899-3.775-13.875c-5.029-8.491-11.33-16.216-16.764-24.483
		C571.367,434.401,569.38,429.73,567.05,425.285z M453.57,729.478c-7.204,3.58-16.245,5.522-21.205,11.097
		c-8.772,9.861-16.252,11.717-26.068,1.525C419.016,757.199,439.876,752.539,453.57,729.478z M448.867,809.511
		c-27.44,19.837-55.489,12.001-83.617,2.062C394.198,831.575,434.453,830.585,448.867,809.511z M468.879,92.319
		c4.727-7.588,10.789-13.967,9.575-15.992c-3.873-6.473-10.444-11.331-15.975-16.812c-0.883,0.813-1.765,1.627-2.647,2.442
		C462.42,70.64,465.007,79.322,468.879,92.319z M469.574,754.879c-10.375,18.716-29.602,13.15-46.5,17.643
		C444.515,778.685,456.273,774.398,469.574,754.879z M383.345,41.107c-2.558-0.658-5.115-1.315-7.671-1.974
		c-1.546,5.498-3.242,10.968-4.251,16.562c-0.059,0.326,5.447,1.655,8.364,2.519C380.973,52.512,382.158,46.81,383.345,41.107z
		 M273.866,93.371c0.317-6.955,0.635-13.91,0.953-20.863C263.13,79.075,260.188,85.98,273.866,93.371z M221.536,172.602
		c-7.146-3.447-11.421-5.508-18.95-9.139c0.469,8.386,0.751,13.463,1.15,20.603C210.611,179.638,214.748,176.973,221.536,172.602z"
		/>
	<path fill-rule="evenodd" clip-rule="evenodd" d="M370.972,360.515c-13.784-3.187-29.087-6.275-44.123-10.353
		c-10.293-2.792-14.96-18.404-8.536-27.038c1.189-1.598,4.951-3.432,5.661-2.855c2.614,2.117,6.379,5.323,6.22,7.904
		c-0.565,9.189,4.481,10.854,11.917,12.268c33.746,6.417,67.083,4.979,99.205-6.958c9.709-3.608,17.543-12.396,26.052-19.044
		c6.3-4.921,14.612-9.063,17.902-15.622c5.052-10.076,6.388-21.979,9.669-32.997c1.114-3.74,3.348-7.147,5.068-10.708
		c4.86,2.62,10.288,4.6,14.298,8.172c1.609,1.433,0.945,6.694-0.184,9.637c-1.952,5.086-4.576,10.09-7.806,14.476
		c-7.639,10.375-15.392,20.719-23.829,30.44c-21.049,24.248-46.133,39.852-80.021,37.982
		C392.796,355.287,382.911,358.614,370.972,360.515z"/>
	<path fill-rule="evenodd" clip-rule="evenodd" d="M376.337,201.013c11.103-10.152,23.785-8.661,36.456-3.007
		c17.678,7.887,25.325,20.609,23.926,37.977c-1.187,14.71-8.542,25.045-22.265,30.307c-3.337,1.279-8.046,1.711-11.119,0.316
		c-4.746-2.153-8.626-6.216-12.873-9.469c4.675-1.384,9.389-4.036,14.019-3.9c10.771,0.316,21.017-11.697,18.822-23.281
		c-2.74-14.476-21.828-27.115-36.691-24.539c-3.185,0.553-6.547,0.082-9.827,0.082C376.635,204.003,376.487,202.507,376.337,201.013
		z"/>
	<path fill-rule="evenodd" clip-rule="evenodd" d="M408.982,160.619c2.527-3.584,4.369-9.042,7.754-10.28
		c4.279-1.564,9.813,0.307,14.808,0.697c0.286,1.78,0.573,3.56,0.859,5.341c-6.484,2.614-12.971,5.228-19.457,7.842
		C411.626,163.019,410.304,161.819,408.982,160.619z"/>
	<path fill-rule="evenodd" clip-rule="evenodd" d="M355.866,530.557c-7.225-5.281-16.856-9.201-20.872-16.299
		c-2.932-5.181,1.535-14.546,5.968-22.316c0.102,15.415,5.399,26.873,19.818,33.795C359.142,527.344,357.505,528.95,355.866,530.557
		z"/>
	<path fill-rule="evenodd" clip-rule="evenodd" d="M559.192,501.153c-1.746-0.322-4.432-0.038-5.092-1.06
		c-6.709-10.395-13.088-21.003-19.31-31.141c12.509-0.585,23.715,13.905,24.056,32.524
		C558.845,501.479,559.192,501.153,559.192,501.153z"/>
	<path fill-rule="evenodd" clip-rule="evenodd" d="M655.306,713.781c-38.71,2.499-77.421,4.998-116.129,7.496
		c-0.104-1.839-0.206-3.676-0.309-5.515c38.57-2.893,77.141-5.785,115.713-8.676C654.821,709.318,655.063,711.549,655.306,713.781z"
		/>
	<path fill-rule="evenodd" clip-rule="evenodd" d="M349.055,224.424c1.171-6.059,4.686-11.174,10.465-11.174
		c5.78,0,10.465,5.003,10.465,11.174s-4.703,11.622-10.465,11.174C352.187,235.029,348.197,228.861,349.055,224.424z"/>
	<ellipse fill-rule="evenodd" clip-rule="evenodd" cx="448.356" cy="211.481" rx="10.328" ry="11.649"/>
</g>
</svg>
